<svg width="30" height="30" viewBox="0 0 30 30" fill="none" xmlns="http://www.w3.org/2000/svg">
<path d="M11.0623 14.5167C13.7317 14.5167 15.8957 12.3527 15.8957 9.68333C15.8957 7.01396 13.7317 4.85 11.0623 4.85C8.39296 4.85 6.229 7.01396 6.229 9.68333C6.229 12.3527 8.39296 14.5167 11.0623 14.5167Z" fill="black" fill-opacity="0.3"/>
<path d="M1.87903 27.0833V24.6667C1.87903 19.6028 5.99848 15.9667 11.0624 15.9667C16.1262 15.9667 20.2457 19.6028 20.2457 24.6667V27.0833H1.87903Z" fill="black" fill-opacity="0.3"/>
<path d="M21.2124 10.1667C23.3479 10.1667 25.079 8.4355 25.079 6.3C25.079 4.1645 23.3479 2.43333 21.2124 2.43333C19.0769 2.43333 17.3457 4.1645 17.3457 6.3C17.3457 8.4355 19.0769 10.1667 21.2124 10.1667Z" fill="black" fill-opacity="0.3"/>
<path d="M21.2123 11.6167C18.4559 11.6167 16.0885 13.0048 15.0339 15.2315C17.3751 16.1078 19.2872 17.7376 20.4516 19.8333H27.979V17.9C27.979 14.1629 24.9495 11.6167 21.2123 11.6167Z" fill="black" fill-opacity="0.3"/>
</svg>
