<svg width="259" height="16" viewBox="0 0 259 16" fill="none" xmlns="http://www.w3.org/2000/svg">
<path d="M6.66608 13.171V0.203613H1.94197C1.4447 0.203613 0.985672 0.471377 0.985672 1.15991C0.985672 1.84845 1.4447 2.11621 1.94197 2.11621H4.75349V13.171H1.94197C1.4447 13.171 0.985672 13.4388 0.985672 14.1273C0.985672 14.8159 1.4447 15.0836 1.94197 15.0836H9.4776C9.97487 15.0836 10.4339 14.8159 10.4339 14.1273V9.30757C10.4339 8.75292 10.1853 8.35127 9.4776 8.35127C8.76994 8.35127 8.5213 8.75292 8.5213 9.30757V13.171H6.66608Z" fill="#FAFAFA"/>
<path d="M16.6637 8.59991H22.0573C22.6884 8.59991 23.1283 8.50428 23.6065 8.06439C24.142 7.56711 24.1994 7.05071 24.1994 6.36217V2.44135C24.1994 1.75282 24.142 1.23642 23.6065 0.73914C23.1283 0.299243 22.6884 0.203613 22.0573 0.203613H15.7074C15.2102 0.203613 14.7511 0.471377 14.7511 1.15991C14.7511 1.84845 15.2102 2.11621 15.7074 2.11621H22.2868V6.68732H16.9124C15.4779 6.68732 14.7511 7.4141 14.7511 8.84855V15.0836H23.2431C23.7403 15.0836 24.1994 14.8159 24.1994 14.1273C24.1994 13.4388 23.7403 13.171 23.2431 13.171H16.6637V8.59991Z" fill="#FAFAFA"/>
<path d="M36.0522 2.11621V5.29112C36.0522 6.36218 35.6315 6.68732 35.0959 6.68732H31.3472C30.85 6.68732 30.3909 6.95508 30.3909 7.64361C30.3909 8.33215 30.85 8.59991 31.3472 8.59991H35.0959C35.6315 8.59991 36.0522 8.92505 36.0522 9.99611V13.171H29.4729C28.9756 13.171 28.5166 13.4388 28.5166 14.1273C28.5166 14.8159 28.9756 15.0836 29.4729 15.0836H36.0522C37.1424 15.0836 37.9648 14.2612 37.9648 13.171V9.49883C37.9648 8.7338 37.8118 8.17914 37.2189 7.64361C37.8118 7.10809 37.9648 6.55343 37.9648 5.7884V2.11621C37.9648 1.02603 37.1424 0.203613 36.0522 0.203613H29.4729C28.9756 0.203613 28.5166 0.471377 28.5166 1.15991C28.5166 1.84845 28.9756 2.11621 29.4729 2.11621H36.0522Z" fill="#FAFAFA"/>
<path d="M45.151 8.31302V1.15991C45.151 0.681763 44.9214 0.203613 44.1947 0.203613C43.4679 0.203613 43.2384 0.681763 43.2384 1.15991V10.2256H48.8614V14.1273C48.8614 14.7393 49.1292 15.0836 49.8177 15.0836C50.5062 15.0836 50.774 14.7393 50.774 14.1273V10.2256C51.2713 10.2256 51.7303 9.95786 51.7303 9.26932C51.7303 8.58079 51.2713 8.31302 50.774 8.31302V2.78562C50.774 2.30747 50.5445 1.82932 49.8177 1.82932C49.0909 1.82932 48.8614 2.30747 48.8614 2.78562V8.31302H45.151Z" fill="#FAFAFA"/>
<path d="M73.6191 2.11621H78.3049C78.8022 2.11621 79.2612 1.84845 79.2612 1.15991C79.2612 0.471377 78.8022 0.203613 78.3049 0.203613H71.7065V8.59991H77.3486V13.171H72.9305C72.6245 13.171 72.1846 12.9033 71.9168 12.7885L71.3431 12.5399C71.1327 12.4442 70.9605 12.3869 70.731 12.3869C70.2338 12.3869 69.813 12.8459 69.813 13.3432C69.813 14.0126 70.3868 14.1847 70.9032 14.4142L71.63 14.7393C72.1081 14.9497 72.395 15.0836 72.8923 15.0836H77.1382C77.8268 15.0836 78.324 15.0071 78.8022 14.4333C79.2038 13.9552 79.2612 13.5344 79.2612 12.9415V8.84855C79.2612 8.17914 79.2038 7.72012 78.6683 7.22284C78.2093 6.78295 77.7503 6.68732 77.1382 6.68732H73.6191V2.11621Z" fill="#FAFAFA"/>
<path d="M85.491 2.11621C86.0457 2.11621 86.4473 1.73369 86.4473 1.15991C86.4473 0.662637 86.0457 0.203613 85.5484 0.203613H84.4009C83.7315 0.203613 83.5785 0.720014 83.5785 1.15991V13.8787C83.5785 14.7585 83.9227 15.0836 84.8216 15.0836H91.7835C92.6442 15.0836 93.0267 14.7776 93.0267 13.8787V9.59446C93.0267 8.71467 92.8354 8.31302 91.8791 8.31302H85.491V2.11621ZM91.1141 10.2256V13.171H85.491V10.2256H91.1141Z" fill="#FAFAFA"/>
<path d="M104.88 2.11621V4.75559C104.88 5.59714 104.918 5.57801 104.287 6.13266L101.647 8.40865C101.169 8.82942 101.15 8.8868 101.15 9.51796V14.1273C101.15 14.7393 101.418 15.0836 102.106 15.0836C102.795 15.0836 103.063 14.7393 103.063 14.1273V10.4169C103.063 9.74747 103.101 9.70922 103.598 9.26932L106.276 6.95508C106.811 6.49606 106.792 6.41955 106.792 5.75014V0.203613H98.3002C97.6882 0.203613 97.3439 0.73914 97.3439 1.15991V2.11621C97.3439 2.53698 97.6882 3.07251 98.3002 3.07251C98.9122 3.07251 99.2565 2.53698 99.2565 2.11621H104.88Z" fill="#FAFAFA"/>
<path d="M114.935 6.68732V2.11621H116.732V6.68732H114.935ZM113.978 0.203613C113.328 0.203613 113.022 0.662637 113.022 1.15991V6.68732C112.429 6.68732 111.97 6.8977 111.626 7.22284C111.282 7.54798 111.109 8.02613 111.109 8.61904V13.171C111.109 14.3377 111.836 15.0836 113.022 15.0836H118.645C119.831 15.0836 120.558 14.3377 120.558 13.171V8.61904C120.558 8.02613 120.385 7.54798 120.041 7.22284C119.697 6.8977 119.238 6.68732 118.645 6.68732V1.15991C118.645 0.662637 118.339 0.203613 117.689 0.203613H113.978ZM113.022 13.171V8.59991H118.645V13.171H113.022Z" fill="#FAFAFA"/>
<path d="M146.176 13.171C145.621 13.171 145.22 13.5535 145.22 14.1273C145.22 14.6437 145.602 15.0836 146.176 15.0836H147.132C147.706 15.0836 148.089 14.6437 148.089 14.1273V1.15991C148.089 0.662637 147.668 0.203613 147.132 0.203613H139.597C139.061 0.203613 138.64 0.662637 138.64 1.15991V6.05616C138.64 6.55343 139.061 7.01246 139.597 7.01246H146.176V13.171ZM140.553 5.09986V2.11621H146.176V5.09986H140.553Z" fill="#FAFAFA"/>
<path d="M154.318 0.203613C153.266 0.203613 152.406 1.06428 152.406 2.11621V13.171C152.406 14.2421 153.228 15.0836 154.318 15.0836H159.941C161.032 15.0836 161.854 14.2421 161.854 13.171V2.11621C161.854 1.06428 160.993 0.203613 159.941 0.203613H154.318ZM154.318 13.171V2.11621H159.941V13.171H154.318Z" fill="#FAFAFA"/>
<path d="M168.084 0.203613C167.032 0.203613 166.171 1.06428 166.171 2.11621V13.171C166.171 14.2421 166.994 15.0836 168.084 15.0836H173.707C174.797 15.0836 175.619 14.2421 175.619 13.171V2.11621C175.619 1.06428 174.759 0.203613 173.707 0.203613H168.084ZM168.084 13.171V2.11621H173.707V13.171H168.084Z" fill="#FAFAFA"/>
<path d="M181.849 0.203613C180.797 0.203613 179.937 1.06428 179.937 2.11621V13.171C179.937 14.2421 180.759 15.0836 181.849 15.0836H187.472C188.563 15.0836 189.385 14.2421 189.385 13.171V2.11621C189.385 1.06428 188.524 0.203613 187.472 0.203613H181.849ZM181.849 13.171V2.11621H187.472V13.171H181.849Z" fill="#FAFAFA"/>
<path d="M209.38 0.203613C208.328 0.203613 207.468 1.06428 207.468 2.11621V13.171C207.468 14.2421 208.29 15.0836 209.38 15.0836H215.003C216.093 15.0836 216.916 14.2421 216.916 13.171V2.11621C216.916 1.06428 216.055 0.203613 215.003 0.203613H209.38ZM209.38 13.171V2.11621H215.003V13.171H209.38Z" fill="#FAFAFA"/>
<path d="M223.146 0.203613C222.094 0.203613 221.233 1.06428 221.233 2.11621V13.171C221.233 14.2421 222.055 15.0836 223.146 15.0836H228.769C229.859 15.0836 230.681 14.2421 230.681 13.171V2.11621C230.681 1.06428 229.821 0.203613 228.769 0.203613H223.146ZM223.146 13.171V2.11621H228.769V13.171H223.146Z" fill="#FAFAFA"/>
<path d="M236.911 0.203613C235.859 0.203613 234.999 1.06428 234.999 2.11621V13.171C234.999 14.2421 235.821 15.0836 236.911 15.0836H242.534C243.624 15.0836 244.447 14.2421 244.447 13.171V2.11621C244.447 1.06428 243.586 0.203613 242.534 0.203613H236.911ZM236.911 13.171V2.11621H242.534V13.171H236.911Z" fill="#FAFAFA"/>
<path d="M250.677 0.203613C249.625 0.203613 248.764 1.06428 248.764 2.11621V13.171C248.764 14.2421 249.586 15.0836 250.677 15.0836H256.3C257.39 15.0836 258.212 14.2421 258.212 13.171V2.11621C258.212 1.06428 257.352 0.203613 256.3 0.203613H250.677ZM250.677 13.171V2.11621H256.3V13.171H250.677Z" fill="#FAFAFA"/>
</svg>
