<svg width="21" height="21" viewBox="0 0 21 21" fill="none" xmlns="http://www.w3.org/2000/svg">
<path d="M3.47607 8.14968C3.72407 8.45968 3.91007 8.83168 4.03407 9.20368C4.15807 9.57568 4.22007 10.0097 4.22007 10.4437C4.22007 10.8777 4.15807 11.3117 4.03407 11.6837C3.91007 12.0557 3.72407 12.4277 3.47607 12.7377C3.16607 13.1717 3.22807 13.7917 3.66207 14.1017C4.09607 14.4117 4.71607 14.3497 5.02607 13.9157C5.39807 13.4197 5.64607 12.9237 5.89407 12.3037C6.14207 11.6837 6.20407 11.0637 6.20407 10.4437C6.20407 9.82368 6.08007 9.20368 5.89407 8.58368C5.70807 8.02568 5.39807 7.46768 5.02607 6.97168C4.71607 6.53768 4.09607 6.47568 3.66207 6.78568C3.22807 7.09568 3.16607 7.71568 3.47607 8.14968Z" fill="#FAFAFA"/>
<path d="M6.88607 6.35167C7.63007 7.52967 8.06407 8.95568 8.06407 10.4437C8.06407 11.9317 7.63007 13.3577 6.88607 14.5357C6.57607 14.9697 6.76207 15.5897 7.19607 15.8997C7.69207 16.2097 8.25007 16.0237 8.56007 15.5897C9.49007 14.1017 10.0481 12.3657 10.0481 10.4437C10.0481 8.58368 9.49007 6.78568 8.56007 5.29768C8.25007 4.86367 7.63007 4.67767 7.19607 4.98767C6.76207 5.29768 6.57607 5.85567 6.88607 6.35167Z" fill="#FAFAFA"/>
<path d="M10.4821 4.49168C11.5361 6.22768 12.0941 8.27368 12.0941 10.4437C12.0941 12.6137 11.4741 14.6597 10.4821 16.3957C10.2341 16.8917 10.3581 17.4497 10.8541 17.7597C11.3501 18.0077 11.9081 17.8837 12.2181 17.3877C13.4581 15.3417 14.1401 12.9857 14.1401 10.4437C14.1401 7.90168 13.4581 5.54568 12.2181 3.49968C11.9701 3.00368 11.3501 2.87968 10.8541 3.12768C10.3581 3.43768 10.2341 3.99568 10.4821 4.49168Z" fill="#FAFAFA"/>
<path d="M14.078 2.63168C15.38 4.92568 16.186 7.59168 16.186 10.4437C16.186 13.2957 15.442 15.9617 14.078 18.2557C13.83 18.7517 13.954 19.3097 14.45 19.6197C14.946 19.8677 15.504 19.7437 15.814 19.2477C17.302 16.6437 18.17 13.6677 18.17 10.4437C18.17 7.21968 17.302 4.24368 15.814 1.63968C15.566 1.14368 14.946 1.01968 14.45 1.26768C13.954 1.51568 13.83 2.13568 14.078 2.63168Z" fill="#FAFAFA"/>
</svg>
