<svg width="22" height="23" viewBox="0 0 22 23" fill="none" xmlns="http://www.w3.org/2000/svg">
<path d="M20.163 16.9345C20.163 17.6009 19.7917 18.8842 18.9585 19.5891C18.7917 19.7175 18.6239 19.6451 18.6972 19.458C18.9402 18.864 19.4966 17.49 19.2353 17.1737C19.052 16.9335 18.2912 16.951 17.6422 17.0069C17.3452 17.0445 17.0857 17.0619 16.8832 17.1031C16.6971 17.1187 16.6586 16.9537 16.8456 16.8254C17.0857 16.6558 17.3452 16.5275 17.6431 16.4331C18.6972 16.1177 19.9164 16.3075 20.0906 16.5091C20.1236 16.5476 20.1639 16.6558 20.1639 16.9335L20.163 16.9345ZM18.4021 18.1206C18.16 18.3055 17.9058 18.474 17.6412 18.6248C15.6961 19.7935 13.1771 20.4059 10.9881 20.4059C7.46533 20.4059 4.31474 19.107 1.92408 16.9335C1.71966 16.7667 1.88924 16.5247 2.12849 16.6558C4.70433 18.1591 7.89249 19.0685 11.1934 19.0685C13.4002 19.0622 15.5867 18.647 17.6422 17.8438C17.7907 17.7879 17.9575 17.7118 18.1032 17.6586C18.4397 17.5074 18.7357 17.8814 18.4021 18.1206ZM12.7462 8.0098C12.7462 7.05555 12.7838 6.49363 12.4676 6.01147C12.1871 5.61455 11.704 5.37622 11.0302 5.4138C10.2987 5.45413 9.51316 5.93355 9.31241 6.81263C9.27391 7.0143 9.15566 7.2123 8.91274 7.25538L6.67974 6.97122C6.52024 6.93455 6.27824 6.81263 6.35708 6.49363C6.83649 3.97097 8.99249 3.09188 11.0302 2.97363H11.5097C12.628 2.97363 14.0644 3.29355 14.9838 4.1323C16.0994 5.17363 15.9812 6.57247 15.9812 8.0923V11.692C15.9812 12.7719 16.4184 13.2504 16.8593 13.8132C16.9785 14.014 17.0188 14.2505 16.8181 14.4136C16.2408 14.9287 15.6549 15.4342 15.0608 15.9298C14.9013 16.0517 14.6135 16.0646 14.5017 15.9711C13.7958 15.3798 13.6235 15.0516 13.1862 14.4512C12.4254 15.2496 11.7874 15.6906 11.0275 15.9298C10.4931 16.0654 9.94349 16.132 9.39216 16.1278C7.47633 16.1278 5.95833 14.9334 5.95833 12.5711C5.95833 10.6929 6.95749 9.41597 8.43333 8.81188C9.90916 8.20688 12.0542 8.01438 12.7453 8.01072L12.7462 8.0098ZM12.3081 12.7691C12.7847 11.9698 12.7453 11.3153 12.7453 9.84955C12.1486 9.84955 11.5482 9.8908 11.0302 10.0127C10.0723 10.2905 9.31241 10.8936 9.31241 12.1715C9.31241 13.1706 9.83216 13.8508 10.7103 13.8508C10.8313 13.8508 10.9377 13.8361 11.0302 13.8095C11.6444 13.639 12.0276 13.331 12.3081 12.7691Z" fill="white"/>
</svg>
