<svg width="22" height="23" viewBox="0 0 22 23" fill="none" xmlns="http://www.w3.org/2000/svg">
<path d="M10.6553 6.84381C9.85233 6.84381 8.60933 5.93081 7.30033 5.96381C5.57333 5.98581 3.98933 6.96481 3.09833 8.51581C1.30533 11.6288 2.63633 16.2268 4.38533 18.7568C5.24333 19.9888 6.25533 21.3748 7.59733 21.3308C8.88433 21.2758 9.36833 20.4948 10.9303 20.4948C12.4813 20.4948 12.9213 21.3308 14.2853 21.2978C15.6713 21.2758 16.5513 20.0438 17.3983 18.8008C18.3773 17.3708 18.7843 15.9848 18.8063 15.9078C18.7733 15.8968 16.1113 14.8738 16.0783 11.7938C16.0563 9.21981 18.1793 7.98781 18.2783 7.93281C17.0683 6.16181 15.2093 5.96381 14.5603 5.91981C12.8663 5.78781 11.4473 6.84381 10.6553 6.84381ZM13.5153 4.24781C14.2303 3.38981 14.7033 2.19081 14.5713 1.00281C13.5483 1.04681 12.3163 1.68481 11.5793 2.54281C10.9193 3.30181 10.3473 4.52281 10.5013 5.68881C11.6343 5.77681 12.8003 5.10581 13.5153 4.24781Z" fill="white"/>
</svg>
