<svg width="28" height="29" viewBox="0 0 28 29" fill="none" xmlns="http://www.w3.org/2000/svg">
<path d="M3.49999 4.22363H24.5C24.8094 4.22363 25.1062 4.34655 25.325 4.56534C25.5437 4.78413 25.6667 5.08088 25.6667 5.3903V24.057C25.6667 24.3664 25.5437 24.6631 25.325 24.8819C25.1062 25.1007 24.8094 25.2236 24.5 25.2236H3.49999C3.19058 25.2236 2.89383 25.1007 2.67504 24.8819C2.45624 24.6631 2.33333 24.3664 2.33333 24.057V5.3903C2.33333 5.08088 2.45624 4.78413 2.67504 4.56534C2.89383 4.34655 3.19058 4.22363 3.49999 4.22363ZM23.3333 14.7236H4.66666V22.8903H23.3333V14.7236ZM23.3333 10.057V6.55697H4.66666V10.057H23.3333Z" fill="#1CD972"/>
</svg>
