<svg width="22" height="23" viewBox="0 0 22 23" fill="none" xmlns="http://www.w3.org/2000/svg">
<path d="M2.80866 7.10778C3.57134 5.58909 4.74134 4.31241 6.18789 3.42046C7.63445 2.5285 9.30055 2.05641 11 2.05695C13.4704 2.05695 15.5457 2.96445 17.1325 4.44486L14.5044 7.07386C13.5538 6.16545 12.3457 5.70253 11 5.70253C8.61208 5.70253 6.59083 7.31586 5.87125 9.48195C5.68791 10.0319 5.58341 10.6186 5.58341 11.2236C5.58341 11.8286 5.68791 12.4153 5.87125 12.9653C6.59175 15.1323 8.61208 16.7447 11 16.7447C12.2329 16.7447 13.2825 16.4193 14.1038 15.8693C14.58 15.5558 14.9876 15.149 15.3021 14.6735C15.6166 14.198 15.8314 13.6636 15.9335 13.1028H11V9.55711H19.6332C19.7413 10.1566 19.8 10.7818 19.8 11.4317C19.8 14.2239 18.8008 16.5742 17.0665 18.1692C15.5503 19.5699 13.475 20.3903 11 20.3903C9.79608 20.3908 8.60386 20.154 7.49149 19.6935C6.37913 19.233 5.36841 18.5578 4.51711 17.7065C3.66581 16.8552 2.99062 15.8445 2.53012 14.7321C2.06962 13.6197 1.83285 12.4275 1.83333 11.2236C1.83333 9.74411 2.18716 8.34528 2.80866 7.10778Z" fill="white"/>
</svg>
