<svg width="22" height="23" viewBox="0 0 22 23" fill="none" xmlns="http://www.w3.org/2000/svg">
<path d="M19.25 19.057C19.25 19.3001 19.1534 19.5332 18.9815 19.7052C18.8096 19.8771 18.5764 19.9736 18.3333 19.9736H3.66667C3.42355 19.9736 3.19039 19.8771 3.01849 19.7052C2.84658 19.5332 2.75 19.3001 2.75 19.057V9.4228C2.7499 9.28312 2.78173 9.14525 2.84306 9.01975C2.90438 8.89424 2.99358 8.78441 3.10383 8.69864L10.4372 2.99514C10.5981 2.86996 10.7961 2.802 11 2.802C11.2039 2.802 11.4019 2.86996 11.5628 2.99514L18.8962 8.69864C19.0064 8.78441 19.0956 8.89424 19.1569 9.01975C19.2183 9.14525 19.2501 9.28312 19.25 9.4228V19.057V19.057ZM17.4167 18.1403V9.87014L11 4.8798L4.58333 9.87014V18.1403H17.4167Z" fill="#1CD972"/>
</svg>
