<svg width="22" height="23" viewBox="0 0 22 23" fill="none" xmlns="http://www.w3.org/2000/svg">
<path d="M11 20.8903C5.93726 20.8903 1.83334 16.7864 1.83334 11.7236C1.83334 6.66086 5.93726 2.55695 11 2.55695C16.0628 2.55695 20.1667 6.66086 20.1667 11.7236C20.1667 16.7864 16.0628 20.8903 11 20.8903ZM11 19.0569C12.9449 19.0569 14.8102 18.2843 16.1855 16.9091C17.5607 15.5338 18.3333 13.6685 18.3333 11.7236C18.3333 9.77869 17.5607 7.91343 16.1855 6.53816C14.8102 5.1629 12.9449 4.39028 11 4.39028C9.05509 4.39028 7.18983 5.1629 5.81456 6.53816C4.43929 7.91343 3.66668 9.77869 3.66668 11.7236C3.66668 13.6685 4.43929 15.5338 5.81456 16.9091C7.18983 18.2843 9.05509 19.0569 11 19.0569V19.0569ZM7.79168 13.5569H12.8333C12.9549 13.5569 13.0715 13.5087 13.1574 13.4227C13.2434 13.3367 13.2917 13.2202 13.2917 13.0986C13.2917 12.9771 13.2434 12.8605 13.1574 12.7745C13.0715 12.6886 12.9549 12.6403 12.8333 12.6403H9.16668C8.55889 12.6403 7.97599 12.3988 7.54622 11.9691C7.11645 11.5393 6.87501 10.9564 6.87501 10.3486C6.87501 9.74082 7.11645 9.15793 7.54622 8.72816C7.97599 8.29839 8.55889 8.05695 9.16668 8.05695H10.0833V6.22361H11.9167V8.05695H14.2083V9.89028H9.16668C9.04512 9.89028 8.92854 9.93857 8.84259 10.0245C8.75663 10.1105 8.70834 10.2271 8.70834 10.3486C8.70834 10.4702 8.75663 10.5867 8.84259 10.6727C8.92854 10.7587 9.04512 10.8069 9.16668 10.8069H12.8333C13.4411 10.8069 14.024 11.0484 14.4538 11.4782C14.8836 11.9079 15.125 12.4908 15.125 13.0986C15.125 13.7064 14.8836 14.2893 14.4538 14.7191C14.024 15.1488 13.4411 15.3903 12.8333 15.3903H11.9167V17.2236H10.0833V15.3903H7.79168V13.5569Z" fill="#1A191E"/>
</svg>
