<svg width="28" height="29" viewBox="0 0 28 29" fill="none" xmlns="http://www.w3.org/2000/svg">
<path d="M11.6667 24.057H6.99999V26.3903H4.66666V24.057H3.49999C3.19058 24.057 2.89383 23.9341 2.67504 23.7153C2.45624 23.4965 2.33333 23.1998 2.33333 22.8903V5.39034C2.33333 5.08092 2.45624 4.78417 2.67504 4.56538C2.89383 4.34659 3.19058 4.22367 3.49999 4.22367H11.6667V2.57867C11.6667 2.49399 11.6852 2.41034 11.7208 2.33352C11.7564 2.25671 11.8083 2.18856 11.873 2.13383C11.9376 2.0791 12.0133 2.03909 12.0949 2.01659C12.1766 1.99408 12.2621 1.98962 12.3457 2.0035L24.6913 4.0615C24.9637 4.10679 25.2113 4.24725 25.3899 4.45789C25.5685 4.66852 25.6665 4.93568 25.6667 5.21184V7.72367H26.8333V10.057H25.6667V18.2237H26.8333V20.557H25.6667V23.0688C25.6665 23.345 25.5685 23.6122 25.3899 23.8228C25.2113 24.0334 24.9637 24.1739 24.6913 24.2192L23.3333 24.4455V26.3903H21V24.8352L12.3457 26.2772C12.2621 26.2911 12.1766 26.2866 12.0949 26.2641C12.0133 26.2416 11.9376 26.2016 11.873 26.1468C11.8083 26.0921 11.7564 26.024 11.7208 25.9472C11.6852 25.8703 11.6667 25.7867 11.6667 25.702V24.057ZM14 23.637L23.3333 22.0807V6.2L14 4.64484V23.6358V23.637ZM19.25 17.057C18.284 17.057 17.5 15.7503 17.5 14.1403C17.5 12.5303 18.284 11.2237 19.25 11.2237C20.216 11.2237 21 12.5303 21 14.1403C21 15.7503 20.216 17.057 19.25 17.057Z" fill="#1CD972"/>
</svg>
