<svg width="28" height="28" viewBox="0 0 28 28" fill="none" xmlns="http://www.w3.org/2000/svg">
<path d="M12.8333 2.33337L21.3477 4.99337C21.5851 5.06751 21.7927 5.2156 21.94 5.41604C22.0874 5.61648 22.1668 5.85877 22.1667 6.10754V8.16671H24.5C24.8094 8.16671 25.1062 8.28962 25.325 8.50842C25.5438 8.72721 25.6667 9.02395 25.6667 9.33337V11.6667H10.5V9.33337C10.5 9.02395 10.6229 8.72721 10.8417 8.50842C11.0605 8.28962 11.3572 8.16671 11.6667 8.16671H19.8333V6.96504L12.8333 4.77637L5.83333 6.96504V15.603C5.83317 16.3173 5.99696 17.0221 6.31209 17.6631C6.62723 18.3041 7.08529 18.8641 7.651 19.3002L7.8715 19.4589L12.8333 22.8434L17.2457 19.8334H11.6667C11.3572 19.8334 11.0605 19.7105 10.8417 19.4917C10.6229 19.2729 10.5 18.9761 10.5 18.6667V14H25.6667V18.6667C25.6667 18.9761 25.5438 19.2729 25.325 19.4917C25.1062 19.7105 24.8094 19.8334 24.5 19.8334L20.7433 19.8345C20.2918 20.4295 19.7435 20.9545 19.11 21.3862L12.8333 25.6667L6.55667 21.3874C5.61461 20.7451 4.84371 19.8824 4.311 18.8743C3.77828 17.8662 3.49988 16.7432 3.5 15.603V6.10754C3.50014 5.85897 3.57967 5.61695 3.72699 5.41674C3.87431 5.21653 4.08173 5.06861 4.319 4.99454L12.8333 2.33337Z" fill="#1CD972"/>
</svg>
