<svg width="28" height="29" viewBox="0 0 28 29" fill="none" xmlns="http://www.w3.org/2000/svg">
<path d="M8.16665 5.39028V24.0569H19.8333V5.39028H8.16665ZM6.99998 3.05695H21C21.3094 3.05695 21.6061 3.17986 21.8249 3.39865C22.0437 3.61745 22.1666 3.91419 22.1666 4.22361V25.2236C22.1666 25.533 22.0437 25.8298 21.8249 26.0486C21.6061 26.2674 21.3094 26.3903 21 26.3903H6.99998C6.69056 26.3903 6.39381 26.2674 6.17502 26.0486C5.95623 25.8298 5.83331 25.533 5.83331 25.2236V4.22361C5.83331 3.91419 5.95623 3.61745 6.17502 3.39865C6.39381 3.17986 6.69056 3.05695 6.99998 3.05695ZM14 20.5569C14.3094 20.5569 14.6061 20.6799 14.8249 20.8987C15.0437 21.1174 15.1666 21.4142 15.1666 21.7236C15.1666 22.033 15.0437 22.3298 14.8249 22.5486C14.6061 22.7674 14.3094 22.8903 14 22.8903C13.6906 22.8903 13.3938 22.7674 13.175 22.5486C12.9562 22.3298 12.8333 22.033 12.8333 21.7236C12.8333 21.4142 12.9562 21.1174 13.175 20.8987C13.3938 20.6799 13.6906 20.5569 14 20.5569Z" fill="#1CD972"/>
</svg>
