<svg width="22" height="23" viewBox="0 0 22 23" fill="none" xmlns="http://www.w3.org/2000/svg">
<path d="M20.3152 5.40829C19.6153 5.71785 18.8732 5.92114 18.1133 6.01146C18.9143 5.53244 19.5137 4.77856 19.8 3.89029C19.0483 4.33763 18.2243 4.65113 17.3653 4.82071C16.7884 4.20341 16.0237 3.79401 15.19 3.65616C14.3564 3.51832 13.5006 3.65974 12.7557 4.05846C12.0107 4.45717 11.4184 5.09084 11.0707 5.86094C10.723 6.63104 10.6395 7.49443 10.8332 8.31688C9.30885 8.24048 7.81764 7.84436 6.45635 7.15424C5.09506 6.46411 3.89412 5.49542 2.9315 4.31104C2.59077 4.89629 2.41171 5.56158 2.41267 6.23879C2.41267 7.56796 3.08917 8.74221 4.11767 9.42971C3.50901 9.41055 2.91375 9.24618 2.3815 8.95029V8.99796C2.38169 9.88319 2.68801 10.7411 3.24853 11.4263C3.80905 12.1114 4.58928 12.5816 5.45692 12.7572C4.8919 12.9103 4.29945 12.9329 3.72442 12.8232C3.96905 13.5852 4.44584 14.2516 5.08804 14.7291C5.73025 15.2066 6.5057 15.4713 7.30584 15.4861C6.51061 16.1107 5.60008 16.5724 4.62631 16.8448C3.65254 17.1172 2.63462 17.195 1.63075 17.0738C3.38314 18.2008 5.42309 18.7991 7.50659 18.7971C14.5585 18.7971 18.4149 12.9552 18.4149 7.88879C18.4149 7.72379 18.4103 7.55696 18.403 7.39379C19.1536 6.85128 19.8015 6.17923 20.3161 5.40921L20.3152 5.40829Z" fill="white"/>
</svg>
