<svg width="22" height="23" viewBox="0 0 22 23" fill="none" xmlns="http://www.w3.org/2000/svg">
<path d="M18.3333 20.8903H16.5V19.057C16.5 18.3276 16.2103 17.6282 15.6945 17.1124C15.1788 16.5967 14.4793 16.307 13.75 16.307H8.24999C7.52064 16.307 6.82117 16.5967 6.30545 17.1124C5.78972 17.6282 5.49999 18.3276 5.49999 19.057V20.8903H3.66666V19.057C3.66666 17.8414 4.14954 16.6756 5.00908 15.8161C5.86863 14.9565 7.03441 14.4737 8.24999 14.4737H13.75C14.9656 14.4737 16.1314 14.9565 16.9909 15.8161C17.8504 16.6756 18.3333 17.8414 18.3333 19.057V20.8903ZM11 12.6403C10.2777 12.6403 9.56252 12.4981 8.89523 12.2217C8.22794 11.9453 7.62162 11.5401 7.1109 11.0294C6.60018 10.5187 6.19505 9.91237 5.91865 9.24508C5.64225 8.57779 5.49999 7.86259 5.49999 7.14032C5.49999 6.41805 5.64225 5.70285 5.91865 5.03556C6.19505 4.36827 6.60018 3.76195 7.1109 3.25123C7.62162 2.74051 8.22794 2.33538 8.89523 2.05898C9.56252 1.78258 10.2777 1.64032 11 1.64032C12.4587 1.64032 13.8576 2.21978 14.8891 3.25123C15.9205 4.28268 16.5 5.68163 16.5 7.14032C16.5 8.59901 15.9205 9.99796 14.8891 11.0294C13.8576 12.0609 12.4587 12.6403 11 12.6403V12.6403ZM11 10.807C11.9725 10.807 12.9051 10.4207 13.5927 9.73305C14.2803 9.04541 14.6667 8.11278 14.6667 7.14032C14.6667 6.16786 14.2803 5.23523 13.5927 4.54759C12.9051 3.85996 11.9725 3.47365 11 3.47365C10.0275 3.47365 9.0949 3.85996 8.40726 4.54759C7.71963 5.23523 7.33332 6.16786 7.33332 7.14032C7.33332 8.11278 7.71963 9.04541 8.40726 9.73305C9.0949 10.4207 10.0275 10.807 11 10.807V10.807Z" fill="#1A191E"/>
</svg>
