<svg width="22" height="23" viewBox="0 0 22 23" fill="none" xmlns="http://www.w3.org/2000/svg">
<path d="M12.8333 13.7879V15.7038C12.0037 15.4104 11.1157 15.3205 10.2441 15.4414C9.37248 15.5623 8.54259 15.8907 7.82414 16.3988C7.10568 16.9069 6.51964 17.58 6.11522 18.3616C5.71081 19.1431 5.49982 20.0103 5.49999 20.8903L3.66666 20.8893C3.66637 19.77 3.92233 18.6654 4.41493 17.6603C4.90753 16.6551 5.62368 15.7761 6.50852 15.0905C7.39336 14.405 8.4234 13.931 9.51971 13.7051C10.616 13.4792 11.7495 13.5072 12.8333 13.787V13.7879ZM11 12.6403C7.96124 12.6403 5.49999 10.179 5.49999 7.14026C5.49999 4.10151 7.96124 1.64026 11 1.64026C14.0387 1.64026 16.5 4.10151 16.5 7.14026C16.5 10.179 14.0387 12.6403 11 12.6403ZM11 10.8069C13.0258 10.8069 14.6667 9.16609 14.6667 7.14026C14.6667 5.11443 13.0258 3.47359 11 3.47359C8.97416 3.47359 7.33332 5.11443 7.33332 7.14026C7.33332 9.16609 8.97416 10.8069 11 10.8069ZM18.3333 16.3069H21.0833V18.1403H18.3333V21.3486L13.75 17.2236L18.3333 13.0986V16.3069Z" fill="#1CD972"/>
</svg>
