<svg width="22" height="23" viewBox="0 0 22 23" fill="none" xmlns="http://www.w3.org/2000/svg">
<path d="M12.8333 13.7879V15.7038C12.0037 15.4104 11.1158 15.3205 10.2441 15.4414C9.37249 15.5623 8.5426 15.8907 7.82415 16.3988C7.1057 16.9069 6.51965 17.58 6.11524 18.3616C5.71082 19.1431 5.49984 20.0103 5.50001 20.8903L3.66667 20.8893C3.66639 19.77 3.92235 18.6654 4.41495 17.6603C4.90754 16.6551 5.6237 15.7761 6.50854 15.0905C7.39338 14.405 8.42342 13.931 9.51973 13.7051C10.616 13.4792 11.7495 13.5072 12.8333 13.787V13.7879ZM11 12.6403C7.96126 12.6403 5.50001 10.179 5.50001 7.14026C5.50001 4.10151 7.96126 1.64026 11 1.64026C14.0388 1.64026 16.5 4.10151 16.5 7.14026C16.5 10.179 14.0388 12.6403 11 12.6403ZM11 10.8069C13.0258 10.8069 14.6667 9.16609 14.6667 7.14026C14.6667 5.11443 13.0258 3.47359 11 3.47359C8.97417 3.47359 7.33334 5.11443 7.33334 7.14026C7.33334 9.16609 8.97417 10.8069 11 10.8069ZM16.5 16.3069V13.0986L21.0833 17.2236L16.5 21.3486V18.1403H13.75V16.3069H16.5Z" fill="#1CD972"/>
</svg>
